<svg width="637" height="146" viewBox="0 0 637 146" fill="none" xmlns="http://www.w3.org/2000/svg">
<path d="M0 46.2582V81.5011C0 82.7435 1.00716 83.7507 2.24954 83.7507H19.4797C20.7221 83.7507 21.7292 82.7435 21.7292 81.5011V62.0843C21.7292 60.8419 22.7364 59.8348 23.9787 59.8348H28.5089C29.7513 59.8348 30.7584 60.8419 30.7584 62.0843V81.5011C30.7584 82.7435 31.7656 83.7507 33.008 83.7507H50.6456C51.888 83.7507 52.8952 82.7435 52.8952 81.5011V46.2935C52.8952 45.2801 52.3766 44.337 51.5208 43.7941L27.5321 28.576C26.5476 27.9514 25.2881 27.963 24.3152 28.6056L1.3286 43.7884C0.49907 44.3363 0 45.2641 0 46.2582Z" fill="url(#paint0_linear_802_21448)"/>
<path d="M60.609 63.9601V81.5006C60.609 82.743 61.6162 83.7502 62.8586 83.7502H110.153C111.395 83.7502 112.402 82.743 112.402 81.5006V64.6705C112.402 63.0357 111.077 61.7105 109.442 61.7105H62.8586C61.6162 61.7105 60.609 62.7177 60.609 63.9601Z" fill="url(#paint1_linear_802_21448)"/>
<path d="M31.6115 0C29.9768 0 28.6516 1.3252 28.6516 2.95992V18.04C28.6516 18.8048 29.0401 19.5172 29.6831 19.9313L59.0415 38.8381C59.8875 39.383 60.3988 40.3203 60.3988 41.3267V51.7476C60.3988 52.99 61.4059 53.9971 62.6483 53.9971H83.7051C84.9475 53.9971 85.9546 52.99 85.9546 51.7476V2.95992C85.9546 1.3252 84.6294 0 82.9947 0H31.6115Z" fill="url(#paint2_linear_802_21448)"/>
<path d="M111.094 91.4645H92.7857C91.6173 91.4645 90.641 92.3531 90.5172 93.5149C89.9008 99.3023 87.8086 115.958 83.3252 125.456C79.1473 134.307 73.0681 141.483 70.5659 144.242C70.2038 144.642 70.5284 145.263 71.0545 145.146C78.5311 143.481 109.353 134.208 113.302 93.894C113.429 92.5969 112.397 91.4645 111.094 91.4645Z" fill="url(#paint3_linear_802_21448)"/>
<path d="M60.609 93.7141V143.844C60.609 144.847 61.7866 145.318 62.4487 144.565C65.4309 141.174 71.4798 133.662 76.3714 123.538C81.723 112.462 82.5313 98.862 82.6349 93.6439C82.659 92.4262 81.6705 91.4645 80.4525 91.4645H62.8585C61.6162 91.4645 60.609 92.4717 60.609 93.7141Z" fill="url(#paint4_linear_802_21448)"/>
<path d="M2.41 91.4645H20.7185C21.8868 91.4645 22.8632 92.3531 22.9869 93.5149C23.6033 99.3023 25.6956 115.958 30.179 125.456C34.3569 134.307 40.4361 141.483 42.9383 144.242C43.3004 144.642 42.9758 145.263 42.4496 145.146C34.9731 143.481 4.15074 134.208 0.202405 93.894C0.0753657 92.5969 1.10669 91.4645 2.41 91.4645Z" fill="url(#paint5_linear_802_21448)"/>
<path d="M52.8951 93.7141V143.844C52.8951 144.847 51.7175 145.318 51.0554 144.565C48.0732 141.174 42.0243 133.662 37.1327 123.538C31.7811 112.462 30.9729 98.862 30.8693 93.6439C30.8451 92.4262 31.8336 91.4645 33.0516 91.4645H50.6456C51.888 91.4645 52.8951 92.4717 52.8951 93.7141Z" fill="url(#paint6_linear_802_21448)"/>
<path d="M152.429 103.58V45.7229H178.63C182.101 45.7229 185.215 46.5219 187.97 48.1199C190.725 49.7178 192.874 51.977 194.417 54.8974C195.959 57.8178 196.731 61.1791 196.731 64.9811C196.731 68.7831 195.959 72.1719 194.417 75.1474C192.874 78.0678 190.725 80.327 187.97 81.925C185.215 83.5229 182.101 84.3219 178.63 84.3219H163.174V103.58H152.429ZM178.134 73.9903C180.393 73.9903 182.267 73.1913 183.754 71.5933C185.242 69.9403 185.986 67.7638 185.986 65.0638C185.986 62.3638 185.242 60.1872 183.754 58.5342C182.267 56.8811 180.393 56.0546 178.134 56.0546H163.174V73.9903H178.134ZM205.44 103.58V61.7576H214.118L214.945 65.3117H215.358C217.011 62.9423 219.546 61.7576 222.962 61.7576H230.649V71.2627H223.623C220.979 71.2627 218.967 71.9791 217.59 73.4117C216.212 74.7893 215.523 76.828 215.523 79.528V103.58H205.44ZM247.003 103.58H236.919V61.7576H247.003V103.58ZM247.416 54.6495H236.588V45.227H247.416V54.6495ZM276.592 104.407C272.625 104.407 269.016 103.47 265.765 101.596C262.514 99.7229 259.952 97.1331 258.078 93.827C256.26 90.5209 255.351 86.8015 255.351 82.6689C255.351 78.5362 256.26 74.8168 258.078 71.5107C259.952 68.2046 262.514 65.6148 265.765 63.7413C269.016 61.8678 272.625 60.9311 276.592 60.9311C280.284 60.9311 283.535 61.675 286.346 63.1627C289.156 64.6505 291.415 66.6066 293.123 69.0311C294.831 71.4556 295.961 74.1005 296.512 76.9658H286.263C285.657 75.0372 284.527 73.4393 282.874 72.1719C281.276 70.9046 279.182 70.2709 276.592 70.2709C274.554 70.2709 272.68 70.7944 270.972 71.8413C269.319 72.8882 267.997 74.3484 267.005 76.2219C266.013 78.0954 265.517 80.2444 265.517 82.6689C265.517 85.0933 266.013 87.2423 267.005 89.1158C267.997 90.9893 269.319 92.4495 270.972 93.4964C272.68 94.5433 274.554 95.0668 276.592 95.0668C279.237 95.0668 281.359 94.4331 282.957 93.1658C284.61 91.8433 285.712 90.1352 286.263 88.0413H296.512C295.961 91.0168 294.831 93.7444 293.123 96.224C291.415 98.7035 289.156 100.687 286.346 102.175C283.535 103.663 280.284 104.407 276.592 104.407ZM323.488 104.407C319.521 104.407 315.912 103.47 312.661 101.596C309.41 99.7229 306.848 97.1331 304.974 93.827C303.156 90.5209 302.247 86.8015 302.247 82.6689C302.247 78.5362 303.156 74.8168 304.974 71.5107C306.848 68.2046 309.41 65.6148 312.661 63.7413C315.912 61.8678 319.521 60.9311 323.488 60.9311C327.346 60.9311 330.844 61.8403 333.985 63.6587C337.126 65.477 339.578 67.9842 341.341 71.1801C343.16 74.3209 344.069 77.8474 344.069 81.7597C344.069 83.578 343.931 84.9831 343.656 85.975H312.33C312.716 88.8954 313.956 91.2923 316.05 93.1658C318.143 94.9842 320.623 95.8933 323.488 95.8933C325.582 95.8933 327.428 95.4525 329.026 94.5709C330.679 93.6893 331.864 92.6148 332.58 91.3474H342.912C341.755 94.8189 339.496 97.877 336.134 100.522C332.828 103.112 328.613 104.407 323.488 104.407ZM333.985 79.1148C333.71 76.3046 332.608 73.9627 330.679 72.0893C328.751 70.2158 326.354 69.2791 323.488 69.2791C320.458 69.2791 317.951 70.2158 315.967 72.0893C313.983 73.9076 312.771 76.2495 312.33 79.1148H333.985Z" fill="#014EFB"/>
<path d="M363.914 103.58H353.169V45.7229H363.914V69.0311H389.95V45.7229H400.695V103.58H389.95V79.8587H363.914V103.58ZM428.603 104.407C425.407 104.407 422.542 103.69 420.007 102.258C417.528 100.77 415.571 98.7035 414.139 96.0586C412.761 93.4138 412.072 90.3556 412.072 86.8842V61.7576H422.156V85.5617C422.156 88.2617 423.01 90.4933 424.718 92.2566C426.426 93.9648 428.575 94.8189 431.165 94.8189C433.865 94.8189 436.097 93.9372 437.86 92.174C439.623 90.3556 440.505 88.1515 440.505 85.5617V61.7576H450.589V103.58H441.828L441.001 99.5301H440.588C439.486 100.853 437.86 102.01 435.711 103.002C433.617 103.938 431.248 104.407 428.603 104.407ZM484.043 104.407C481.232 104.407 478.753 103.911 476.604 102.919C474.51 101.872 472.802 100.494 471.479 98.7862H471.066L470.24 103.58H461.561V45.7229H471.645V66.1382H472.058C473.27 64.6505 474.896 63.4107 476.934 62.4189C479.028 61.427 481.398 60.9311 484.043 60.9311C487.624 60.9311 490.875 61.8403 493.796 63.6587C496.771 65.477 499.113 68.0393 500.821 71.3454C502.529 74.6515 503.383 78.426 503.383 82.6689C503.383 86.9117 502.529 90.6862 500.821 93.9923C499.113 97.2984 496.771 99.8607 493.796 101.679C490.875 103.497 487.624 104.407 484.043 104.407ZM482.472 95.0668C485.558 95.0668 488.12 93.9372 490.159 91.678C492.253 89.3638 493.3 86.3607 493.3 82.6689C493.3 78.977 492.253 76.0015 490.159 73.7423C488.12 71.428 485.558 70.2709 482.472 70.2709C479.386 70.2709 476.797 71.428 474.703 73.7423C472.664 76.0015 471.645 78.977 471.645 82.6689C471.645 86.3607 472.664 89.3638 474.703 91.678C476.797 93.9372 479.386 95.0668 482.472 95.0668ZM534.651 104.407C531.841 104.407 529.362 103.911 527.213 102.919C525.119 101.872 523.411 100.494 522.088 98.7862H521.675L520.848 103.58H512.17V45.7229H522.253V66.1382H522.667C523.879 64.6505 525.504 63.4107 527.543 62.4189C529.637 61.427 532.007 60.9311 534.651 60.9311C538.233 60.9311 541.484 61.8403 544.404 63.6587C547.38 65.477 549.722 68.0393 551.43 71.3454C553.138 74.6515 553.992 78.426 553.992 82.6689C553.992 86.9117 553.138 90.6862 551.43 93.9923C549.722 97.2984 547.38 99.8607 544.404 101.679C541.484 103.497 538.233 104.407 534.651 104.407ZM533.081 95.0668C536.167 95.0668 538.729 93.9372 540.768 91.678C542.862 89.3638 543.909 86.3607 543.909 82.6689C543.909 78.977 542.862 76.0015 540.768 73.7423C538.729 71.428 536.167 70.2709 533.081 70.2709C529.995 70.2709 527.406 71.428 525.312 73.7423C523.273 76.0015 522.253 78.977 522.253 82.6689C522.253 86.3607 523.273 89.3638 525.312 91.678C527.406 93.9372 529.995 95.0668 533.081 95.0668ZM572.862 103.58H562.779V45.7229H572.862V103.58ZM602.846 104.407C598.879 104.407 595.269 103.47 592.018 101.596C588.767 99.7229 586.205 97.1331 584.332 93.827C582.513 90.5209 581.604 86.8015 581.604 82.6689C581.604 78.5362 582.513 74.8168 584.332 71.5107C586.205 68.2046 588.767 65.6148 592.018 63.7413C595.269 61.8678 598.879 60.9311 602.846 60.9311C606.703 60.9311 610.202 61.8403 613.343 63.6587C616.484 65.477 618.936 67.9842 620.699 71.1801C622.517 74.3209 623.427 77.8474 623.427 81.7597C623.427 83.578 623.289 84.9831 623.013 85.975H591.688C592.074 88.8954 593.313 91.2923 595.407 93.1658C597.501 94.9842 599.981 95.8933 602.846 95.8933C604.94 95.8933 606.786 95.4525 608.384 94.5709C610.037 93.6893 611.221 92.6148 611.938 91.3474H622.269C621.112 94.8189 618.853 97.877 615.492 100.522C612.186 103.112 607.97 104.407 602.846 104.407ZM613.343 79.1148C613.067 76.3046 611.965 73.9627 610.037 72.0893C608.108 70.2158 605.711 69.2791 602.846 69.2791C599.815 69.2791 597.308 70.2158 595.325 72.0893C593.341 73.9076 592.129 76.2495 591.688 79.1148H613.343Z" fill="#003875"/>
<defs>
<linearGradient id="paint0_linear_802_21448" x1="-2.29505e-06" y1="16.0619" x2="97.9777" y2="145.093" gradientUnits="userSpaceOnUse">
<stop stop-color="#007AFF"/>
<stop offset="0.457692" stop-color="#014EFB"/>
<stop offset="1" stop-color="#003875"/>
</linearGradient>
<linearGradient id="paint1_linear_802_21448" x1="-2.29505e-06" y1="16.0619" x2="97.9777" y2="145.093" gradientUnits="userSpaceOnUse">
<stop stop-color="#007AFF"/>
<stop offset="0.457692" stop-color="#014EFB"/>
<stop offset="1" stop-color="#003875"/>
</linearGradient>
<linearGradient id="paint2_linear_802_21448" x1="-2.29505e-06" y1="16.0619" x2="97.9777" y2="145.093" gradientUnits="userSpaceOnUse">
<stop stop-color="#007AFF"/>
<stop offset="0.457692" stop-color="#014EFB"/>
<stop offset="1" stop-color="#003875"/>
</linearGradient>
<linearGradient id="paint3_linear_802_21448" x1="-2.29505e-06" y1="16.0619" x2="97.9777" y2="145.093" gradientUnits="userSpaceOnUse">
<stop stop-color="#007AFF"/>
<stop offset="0.457692" stop-color="#014EFB"/>
<stop offset="1" stop-color="#003875"/>
</linearGradient>
<linearGradient id="paint4_linear_802_21448" x1="-2.29505e-06" y1="16.0619" x2="97.9777" y2="145.093" gradientUnits="userSpaceOnUse">
<stop stop-color="#007AFF"/>
<stop offset="0.457692" stop-color="#014EFB"/>
<stop offset="1" stop-color="#003875"/>
</linearGradient>
<linearGradient id="paint5_linear_802_21448" x1="-2.29505e-06" y1="16.0619" x2="97.9777" y2="145.093" gradientUnits="userSpaceOnUse">
<stop stop-color="#007AFF"/>
<stop offset="0.457692" stop-color="#014EFB"/>
<stop offset="1" stop-color="#003875"/>
</linearGradient>
<linearGradient id="paint6_linear_802_21448" x1="-2.29505e-06" y1="16.0619" x2="97.9777" y2="145.093" gradientUnits="userSpaceOnUse">
<stop stop-color="#007AFF"/>
<stop offset="0.457692" stop-color="#014EFB"/>
<stop offset="1" stop-color="#003875"/>
</linearGradient>
</defs>
</svg>
